<svg width="131" height="33" viewBox="0 0 131 33" fill="none" xmlns="http://www.w3.org/2000/svg">
<path d="M25.845 1.92C25.0517 1.96667 24.48 2.06 24.13 2.2C23.78 2.34 23.535 2.60833 23.395 3.005C23.2783 3.40167 23.22 4.04333 23.22 4.93V22.29C23.22 23.1767 23.2783 23.8183 23.395 24.215C23.535 24.6117 23.78 24.88 24.13 25.02C24.48 25.16 25.0517 25.2533 25.845 25.3V26C24.655 25.93 22.8117 25.895 20.315 25.895C18.0283 25.895 16.2667 25.93 15.03 26V25.3C15.8 25.2533 16.36 25.16 16.71 25.02C17.0833 24.88 17.3283 24.6117 17.445 24.215C17.585 23.8183 17.655 23.1767 17.655 22.29V4.93C17.655 4.04333 17.585 3.40167 17.445 3.005C17.305 2.585 17.0367 2.305 16.64 2.165C16.2433 2.00167 15.6367 1.92 14.82 1.92H11.215C10.3983 1.92 9.79167 2.00167 9.395 2.165C8.99833 2.305 8.73 2.585 8.59 3.005C8.45 3.40167 8.38 4.04333 8.38 4.93V22.29C8.38 23.1767 8.43833 23.8183 8.555 24.215C8.695 24.6117 8.94 24.88 9.29 25.02C9.64 25.16 10.2117 25.2533 11.005 25.3V26C9.745 25.93 7.98333 25.895 5.72 25.895C3.22333 25.895 1.38 25.93 0.19 26V25.3C0.96 25.2533 1.52 25.16 1.87 25.02C2.24333 24.88 2.48833 24.6117 2.605 24.215C2.745 23.8183 2.815 23.1767 2.815 22.29V4.93C2.815 4.04333 2.745 3.40167 2.605 3.005C2.48833 2.60833 2.24333 2.34 1.87 2.2C1.52 2.06 0.96 1.96667 0.19 1.92V1.22C1.38 1.29 3.22333 1.325 5.72 1.325C6.88667 1.325 8.40333 1.30167 10.27 1.255L13.07 1.22L15.8 1.255C17.6667 1.30167 19.1717 1.325 20.315 1.325C22.8117 1.325 24.655 1.29 25.845 1.22V1.92ZM39.988 7.415C41.2013 7.415 42.2747 7.74167 43.208 8.395C44.1647 9.04833 44.9113 10.0283 45.448 11.335C45.9847 12.6417 46.253 14.24 46.253 16.13C46.253 19.4667 45.518 22.0333 44.048 23.83C42.6013 25.6033 40.6297 26.49 38.133 26.49C37.433 26.49 36.768 26.3967 36.138 26.21C35.5313 26.0233 35.0063 25.7433 34.563 25.37V28.87C34.563 29.8967 34.8197 30.6083 35.333 31.005C35.8463 31.4017 36.6397 31.6 37.713 31.6V32.335L36.768 32.3C34.178 32.23 32.533 32.195 31.833 32.195C31.133 32.195 29.663 32.2417 27.423 32.335V31.6C28.193 31.6 28.7297 31.425 29.033 31.075C29.3597 30.7483 29.523 30.13 29.523 29.22V11.72C29.523 10.6467 29.348 9.865 28.998 9.375C28.6713 8.885 28.0997 8.64 27.283 8.64V7.905C28.0297 7.975 28.753 8.01 29.453 8.01C31.483 8.01 33.1863 7.84667 34.563 7.52V10.74C35.053 9.66667 35.7647 8.85 36.698 8.29C37.6313 7.70667 38.728 7.415 39.988 7.415ZM36.768 25.545C38.2613 25.545 39.3347 24.81 39.988 23.34C40.6413 21.8467 40.968 19.6767 40.968 16.83C40.968 13.9833 40.6997 11.9533 40.163 10.74C39.6497 9.52667 38.903 8.92 37.923 8.92C37.1297 8.92 36.418 9.18833 35.788 9.725C35.1813 10.2617 34.773 11.0083 34.563 11.965V24.6C35.123 25.23 35.858 25.545 36.768 25.545ZM57.4393 7.415C60.1227 7.415 62.2227 8.185 63.7393 9.725C65.256 11.2417 66.0143 13.6567 66.0143 16.97C66.0143 20.2833 65.256 22.6983 63.7393 24.215C62.2227 25.7317 60.1227 26.49 57.4393 26.49C54.7793 26.49 52.6793 25.7317 51.1393 24.215C49.6227 22.6983 48.8643 20.2833 48.8643 16.97C48.8643 13.6567 49.6227 11.2417 51.1393 9.725C52.6793 8.185 54.7793 7.415 57.4393 7.415ZM57.4393 8.115C56.436 8.115 55.631 8.85 55.0243 10.32C54.441 11.7667 54.1493 13.9833 54.1493 16.97C54.1493 19.9567 54.441 22.1733 55.0243 23.62C55.631 25.0667 56.436 25.79 57.4393 25.79C58.466 25.79 59.271 25.0783 59.8543 23.655C60.4377 22.2083 60.7293 19.98 60.7293 16.97C60.7293 13.96 60.426 11.7317 59.8193 10.285C59.236 8.83833 58.4427 8.115 57.4393 8.115ZM78.7694 0.729998C81.196 0.729998 83.296 1.255 85.0694 2.305C86.8427 3.33167 88.196 4.81333 89.1294 6.75C90.0627 8.66333 90.5294 10.9383 90.5294 13.575C90.5294 16.1883 90.016 18.475 88.9894 20.435C87.986 22.3717 86.551 23.865 84.6844 24.915C82.841 25.965 80.671 26.49 78.1744 26.49C76.7977 26.49 75.6194 26.2917 74.6394 25.895C73.6594 25.4983 72.6794 24.9383 71.6994 24.215C71.4194 24.005 71.186 23.9 70.9994 23.9C70.766 23.9 70.5794 24.075 70.4394 24.425C70.2994 24.7517 70.1944 25.2767 70.1244 26H69.3194C69.4127 24.6 69.4594 22.08 69.4594 18.44H70.2644C70.5444 19.84 70.871 20.9483 71.2444 21.765C71.6177 22.5817 72.1544 23.2817 72.8544 23.865C73.391 24.4017 74.0444 24.8217 74.8144 25.125C75.6077 25.405 76.401 25.545 77.1944 25.545C79.5744 25.545 81.3477 24.4133 82.5144 22.15C83.7044 19.8633 84.2994 17.0167 84.2994 13.61C84.2994 13.05 84.2877 12.63 84.2644 12.35C83.891 13.6567 83.3427 14.66 82.6194 15.36C81.9194 16.0367 81.1494 16.375 80.3094 16.375C79.726 16.375 79.1894 16.27 78.6994 16.06C78.2094 15.8267 77.6377 15.5 76.9844 15.08C76.401 14.6833 75.8994 14.3917 75.4794 14.205C75.0594 14.0183 74.616 13.925 74.1494 13.925C73.6594 13.925 73.181 14.1 72.7144 14.45C72.2477 14.7767 71.921 15.3133 71.7344 16.06L71.1744 15.92C71.4544 14.1 71.9794 12.7117 72.7494 11.755C73.5194 10.7983 74.4177 10.32 75.4444 10.32C76.0277 10.32 76.541 10.425 76.9844 10.635C77.4277 10.845 77.9877 11.16 78.6644 11.58C79.271 11.9767 79.7844 12.28 80.2044 12.49C80.6477 12.6767 81.126 12.77 81.6394 12.77C82.1527 12.77 82.631 12.6417 83.0744 12.385C83.541 12.1283 83.926 11.7433 84.2294 11.23C84.0427 8.29 83.4477 5.945 82.4444 4.195C81.4644 2.42166 79.9594 1.535 77.9294 1.535C77.066 1.535 76.1794 1.68666 75.2694 1.99C74.3594 2.29333 73.6244 2.725 73.0644 3.285C72.2477 3.985 71.6527 4.76667 71.2794 5.63C70.906 6.47 70.626 7.68333 70.4394 9.27H69.6344C69.6344 5.42 69.5877 2.73667 69.4944 1.22H70.2994C70.3694 1.94333 70.4744 2.46833 70.6144 2.795C70.7544 3.12166 70.941 3.285 71.1744 3.285C71.3377 3.285 71.571 3.19167 71.8744 3.005C73.9044 1.48833 76.2027 0.729998 78.7694 0.729998ZM104.006 16.62C106.48 16.7133 108.253 17.1333 109.326 17.88C110.423 18.6267 110.971 19.7233 110.971 21.17C110.971 24.39 108.498 26 103.551 26C103.155 26 102.373 25.9767 101.206 25.93C99.7596 25.8833 98.593 25.86 97.7063 25.86C97.0296 25.86 95.4313 25.9067 92.9113 26V25.265C93.7513 25.265 94.3346 25.09 94.6613 24.74C94.988 24.3667 95.1513 23.7017 95.1513 22.745V11.195C95.1513 10.2383 94.988 9.585 94.6613 9.235C94.3346 8.86167 93.7513 8.675 92.9113 8.675V7.94C95.338 8.03333 96.8663 8.08 97.4963 8.08C98.3363 8.08 99.433 8.05667 100.786 8.01C101.906 7.96333 102.665 7.94 103.061 7.94C107.775 7.94 110.131 9.31667 110.131 12.07C110.131 13.2133 109.606 14.205 108.556 15.045C107.53 15.8617 106.013 16.3867 104.006 16.62ZM102.011 8.675C101.311 8.675 100.833 8.85 100.576 9.2C100.32 9.52667 100.191 10.1917 100.191 11.195V16.515H100.751C101.895 16.4917 102.77 16.3283 103.376 16.025C104.006 15.7217 104.438 15.29 104.671 14.73C104.905 14.17 105.021 13.4117 105.021 12.455C105.021 11.2417 104.811 10.3083 104.391 9.655C103.971 9.00167 103.178 8.675 102.011 8.675ZM102.116 25.265C104.566 25.265 105.791 23.9117 105.791 21.205C105.791 19.7583 105.453 18.7317 104.776 18.125C104.1 17.495 103.061 17.18 101.661 17.18H100.191V22.745C100.191 23.7483 100.32 24.425 100.576 24.775C100.856 25.1017 101.37 25.265 102.116 25.265ZM122.005 7.415C124.688 7.415 126.788 8.185 128.305 9.725C129.821 11.2417 130.58 13.6567 130.58 16.97C130.58 20.2833 129.821 22.6983 128.305 24.215C126.788 25.7317 124.688 26.49 122.005 26.49C119.345 26.49 117.245 25.7317 115.705 24.215C114.188 22.6983 113.43 20.2833 113.43 16.97C113.43 13.6567 114.188 11.2417 115.705 9.725C117.245 8.185 119.345 7.415 122.005 7.415ZM122.005 8.115C121.001 8.115 120.196 8.85 119.59 10.32C119.006 11.7667 118.715 13.9833 118.715 16.97C118.715 19.9567 119.006 22.1733 119.59 23.62C120.196 25.0667 121.001 25.79 122.005 25.79C123.031 25.79 123.836 25.0783 124.42 23.655C125.003 22.2083 125.295 19.98 125.295 16.97C125.295 13.96 124.991 11.7317 124.385 10.285C123.801 8.83833 123.008 8.115 122.005 8.115Z" fill="white"/>
</svg>
